<svg xmlns="http://www.w3.org/2000/svg" viewBox="0 -0.5 256 256" shape-rendering="crispEdges">
<metadata>Made with Pixels to Svg https://codepen.io/shshaw/pen/XbxvNj</metadata>
<path stroke="#ffffff" d="M0 0h48M208 0h48M0 1h48M208 1h48M0 2h48M208 2h16M225 2h31M0 3h48M208 3h48M0 4h48M208 4h48M0 5h48M208 5h48M0 6h3M4 6h7M12 6h36M208 6h48M0 7h48M208 7h48M0 8h48M208 8h48M0 9h48M208 9h48M0 10h48M208 10h48M0 11h48M208 11h48M0 12h48M208 12h48M0 13h48M208 13h48M0 14h48M208 14h48M0 15h48M208 15h48M0 16h48M208 16h48M0 17h48M208 17h48M0 18h44M45 18h3M208 18h48M0 19h48M208 19h48M0 20h48M208 20h48M0 21h48M208 21h48M0 22h48M208 22h48M0 23h48M208 23h48M0 24h15M16 24h32M208 24h19M228 24h28M0 25h48M208 25h48M0 26h48M208 26h48M0 27h48M208 27h48M0 28h48M208 28h48M0 29h48M208 29h31M240 29h16M0 30h20M21 30h27M208 30h48M0 31h48M208 31h48M0 32h48M208 32h48M0 33h48M208 33h48M0 34h48M208 34h48M0 35h38M39 35h9M208 35h30M239 35h17M0 36h48M208 36h48M0 37h48M208 37h48M0 38h48M208 38h48M0 39h48M208 39h43M252 39h4M0 40h48M208 40h48M0 41h48M208 41h48M0 42h48M208 42h48M0 43h48M208 43h48M0 44h48M208 44h16M225 44h31M0 45h24M25 45h23M208 45h48M0 46h48M208 46h48M0 47h48M208 47h48M0 48h42M43 48h36M80 48h16M160 48h96M0 49h17M18 49h34M53 49h43M160 49h34M195 49h61M0 50h17M18 50h76M95 50h1M160 50h69M230 50h26M0 51h96M160 51h96M0 52h49M50 52h46M160 52h96M0 53h96M160 53h13M174 53h28M203 53h53M0 54h96M160 54h96M0 55h96M160 55h85M246 55h10M0 56h96M160 56h96M0 57h96M160 57h96M0 58h96M160 58h96M0 59h96M160 59h96M0 60h50M51 60h45M160 60h96M0 61h34M35 61h61M160 61h45M206 61h33M240 61h16M0 62h96M160 62h96M0 63h96M160 63h96M0 64h96M160 64h68M229 64h27M0 65h96M160 65h12M173 65h16M190 65h15M206 65h50M0 66h96M160 66h96M0 67h96M160 67h96M0 68h31M32 68h64M160 68h96M0 69h73M74 69h22M160 69h77M238 69h18M0 70h27M28 70h68M160 70h96M0 71h96M160 71h8M169 71h87M0 72h96M160 72h96M0 73h96M160 73h96M0 74h96M160 74h10M171 74h43M215 74h26M242 74h14M0 75h96M160 75h63M224 75h32M0 76h21M22 76h74M160 76h37M198 76h58M0 77h96M160 77h96M0 78h96M160 78h96M0 79h96M160 79h96M0 80h95M160 80h35M196 80h60M0 81h96M160 81h96M0 82h96M160 82h96M0 83h96M160 83h96M0 84h56M57 84h39M160 84h90M251 84h5M0 85h96M160 85h96M0 86h96M160 86h96M0 87h96M160 87h96M0 88h3M4 88h51M56 88h40M160 88h96M0 89h47M48 89h48M160 89h96M0 90h1M2 90h84M87 90h9M160 90h96M0 91h96M160 91h96M0 92h20M21 92h75M160 92h96M0 93h96M160 93h96M0 94h80M81 94h15M160 94h96M0 95h96M160 95h96M0 96h256M0 97h72M73 97h183M0 98h249M250 98h6M0 99h256M0 100h29M30 100h226M0 101h54M55 101h30M86 101h170M0 102h131M132 102h124M0 103h46M47 103h70M118 103h108M227 103h29M0 104h256M0 105h256M0 106h7M8 106h248M0 107h107M108 107h139M248 107h8M0 108h227M228 108h28M0 109h205M206 109h50M0 110h27M28 110h163M192 110h64M0 111h1M2 111h153M156 111h100M0 112h68M69 112h2M72 112h184M0 113h40M41 113h80M122 113h108M231 113h25M0 114h31M32 114h118M151 114h105M0 115h221M222 115h34M0 116h200M201 116h55M0 117h256M0 118h94M95 118h94M190 118h66M0 119h70M71 119h99M171 119h85M0 120h37M38 120h218M0 121h256M0 122h144M145 122h86M232 122h24M0 123h120M121 123h120M242 123h14M0 124h256M0 125h256M0 126h256M0 127h43M44 127h54M99 127h157M0 128h256M0 129h256M0 130h256M0 131h161M162 131h94M0 132h256M0 133h256M0 134h256M0 135h256M0 136h61M62 136h194M0 137h256M0 138h256M0 139h256M0 140h35M36 140h220M0 141h84M85 141h78M164 141h92M0 142h213M214 142h42M0 143h56M57 143h199M0 144h256M0 145h256M0 146h256M0 147h218M219 147h28M248 147h6M255 147h1M0 148h115M116 148h140M1 149h255M0 150h93M94 150h162M0 151h8M9 151h247M0 152h95M96 152h160M0 153h256M0 154h256M0 155h100M101 155h155M0 156h240M241 156h2M244 156h12M0 157h256M0 158h85M86 158h170M0 159h232M233 159h23M0 160h48M96 160h64M208 160h7M216 160h40M0 161h45M46 161h2M96 161h64M208 161h48M0 162h48M96 162h64M208 162h48M0 163h48M96 163h64M208 163h48M0 164h33M34 164h14M96 164h64M208 164h48M0 165h48M96 165h64M208 165h48M0 166h48M96 166h64M208 166h48M0 167h48M96 167h64M208 167h48M0 168h11M12 168h36M96 168h64M208 168h48M0 169h48M96 169h64M208 169h48M0 170h48M96 170h16M113 170h47M208 170h48M0 171h48M96 171h64M208 171h48M0 172h48M96 172h64M208 172h7M216 172h40M0 173h31M32 173h16M96 173h64M208 173h17M226 173h30M0 174h48M96 174h43M140 174h20M208 174h48M0 175h48M96 175h64M208 175h48M0 176h48M96 176h64M208 176h48M0 177h48M96 177h64M208 177h48M0 178h48M96 178h61M158 178h2M208 178h48M0 179h48M96 179h64M208 179h30M239 179h17M0 180h48M96 180h64M208 180h48M0 181h48M96 181h64M208 181h48M0 182h48M96 182h64M208 182h48M0 183h48M96 183h23M120 183h40M208 183h48M0 184h48M96 184h64M208 184h48M0 185h48M96 185h64M208 185h48M0 186h27M28 186h20M96 186h64M208 186h43M252 186h4M0 187h48M96 187h64M208 187h48M0 188h41M42 188h6M96 188h64M208 188h48M0 189h48M96 189h30M127 189h33M208 189h48M0 190h48M96 190h3M100 190h60M208 190h48M0 191h44M45 191h3M96 191h64M208 191h48M0 192h48M96 192h64M208 192h48M0 193h18M19 193h29M96 193h64M208 193h48M0 194h48M96 194h64M208 194h48M0 195h48M96 195h64M208 195h48M0 196h48M96 196h64M208 196h48M0 197h6M7 197h41M96 197h64M208 197h48M0 198h48M96 198h64M208 198h48M0 199h43M44 199h4M96 199h64M208 199h48M0 200h48M96 200h64M208 200h48M0 201h48M96 201h64M208 201h48M0 202h48M96 202h64M208 202h48M0 203h48M96 203h64M208 203h48M0 204h48M96 204h64M208 204h8M217 204h39M0 205h48M96 205h64M208 205h48M0 206h48M96 206h64M208 206h48M0 207h17M18 207h30M96 207h64M208 207h24M233 207h23M0 208h236M237 208h19M0 209h256M0 210h256M0 211h256M0 212h46M47 212h209M0 213h256M0 214h256M0 215h200M201 215h55M0 216h17M18 216h238M0 217h170M171 217h85M0 218h256M0 219h168M169 219h87M0 220h256M0 221h154M155 221h101M0 222h2M3 222h253M0 223h157M158 223h98M0 224h1M2 224h254M0 225h26M27 225h146M174 225h82M0 226h184M185 226h71M0 227h256M0 228h222M223 228h33M0 229h189M190 229h66M0 230h149M150 230h41M192 230h64M0 231h6M7 231h249M0 232h120M121 232h34M156 232h100M0 233h121M122 233h134M0 234h256M0 235h233M234 235h22M0 236h22M23 236h114M138 236h25M164 236h92M0 237h256M0 238h256M0 239h256M0 240h3M4 240h252M0 241h256M0 242h256M0 243h256M0 244h68M69 244h187M0 245h124M125 245h81M207 245h49M0 246h173M174 246h82M0 247h256M0 248h50M51 248h48M100 248h89M190 248h66M0 249h256M0 250h189M190 250h33M224 250h32M0 251h256M0 252h41M42 252h18M61 252h84M146 252h49M196 252h29M226 252h30M0 253h200M201 253h55M0 254h159M160 254h1M162 254h94M0 255h256" />
<path stroke="#fffdff" d="M224 2h1M11 6h1M239 29h1M238 35h1M251 39h1M52 49h1M173 53h1M245 55h1M34 61h1M205 61h1M237 69h1M195 80h1M80 94h1M7 106h1M107 107h1M191 110h1M94 118h1M170 119h1M100 155h1M232 159h1M215 160h1M99 190h1M18 193h1M6 197h1M216 204h1M17 207h1M46 212h1M157 223h1M26 225h1M184 226h1M191 230h1M163 236h1M68 244h1M195 252h1M200 253h1M161 254h1" />
<path stroke="#fffffd" d="M3 6h1M20 30h1M79 48h1M172 65h1M189 65h1M27 70h1M214 74h1M197 76h1M95 80h1M56 84h1M55 88h1M47 89h1M1 90h1M20 92h1M226 103h1M227 108h1M155 111h1M71 112h1M31 114h1M221 115h1M37 120h1M241 123h1M61 136h1M56 143h1M95 152h1M85 158h1M112 170h1M251 186h1M126 189h1M168 219h1M154 221h1M173 225h1M50 248h1M99 248h1M189 250h1M223 250h1M225 252h1" />
<path stroke="#fffffe" d="M44 18h1M224 44h1M229 50h1M202 53h1M205 65h1M241 74h1M21 76h1M54 101h1M1 111h1M121 113h1M200 116h1M35 140h1M247 147h1M33 164h1M225 173h1M157 178h1M41 188h1M236 208h1M2 222h1M222 228h1M155 232h1M233 235h1M22 236h1M137 236h1M173 246h1M145 252h1M159 254h1" />
<path stroke="#fdffff" d="M15 24h1M38 35h1M194 49h1M49 52h1M239 61h1M168 71h1M29 100h1M68 112h1M231 122h1M98 127h1M161 131h1M163 141h1M115 148h1M0 149h1M93 150h1M243 156h1M215 172h1M232 207h1M17 216h1M1 224h1M189 229h1M6 231h1M121 233h1M124 245h1" />
<path stroke="#fffeff" d="M227 24h1M24 45h1M42 48h1M94 50h1M50 60h1M170 74h1M223 75h1M3 88h1M72 97h1M249 98h1M131 102h1M247 107h1M27 110h1M40 113h1M150 114h1M144 122h1M120 123h1M84 141h1M213 142h1M218 147h1M254 147h1M8 151h1M45 161h1M11 168h1M31 173h1M170 217h1M120 232h1M206 245h1M41 252h1" />
<path stroke="#feffff" d="M17 49h1M17 50h1M228 64h1M31 68h1M73 69h1M250 84h1M86 90h1M85 101h1M46 103h1M117 103h1M205 109h1M230 113h1M189 118h1M70 119h1M43 127h1M240 156h1M139 174h1M238 179h1M119 183h1M27 186h1M44 191h1M43 199h1M200 215h1M149 230h1M3 240h1M189 248h1M60 252h1" />
<path stroke="#59c135" d="M48 160h48M160 160h48M48 161h48M160 161h5M166 161h8M175 161h33M48 162h48M160 162h48M48 163h48M160 163h48M48 164h48M160 164h48M48 165h48M160 165h48M48 166h48M160 166h48M48 167h30M79 167h17M160 167h48M48 168h10M59 168h37M160 168h48M48 169h48M160 169h48M48 170h48M160 170h48M48 171h48M160 171h2M163 171h45M48 172h48M160 172h48M48 173h48M160 173h48M48 174h48M160 174h48M48 175h48M160 175h35M196 175h12M48 176h48M160 176h48M48 177h48M160 177h48M48 178h18M67 178h29M160 178h48M48 179h48M160 179h48M48 180h48M160 180h48M48 181h48M160 181h48M48 182h48M160 182h31M192 182h16M48 183h48M160 183h31M192 183h16M48 184h48M160 184h48M48 185h11M60 185h36M160 185h48M48 186h45M94 186h2M160 186h48M48 187h48M160 187h48M48 188h48M160 188h48M48 189h48M160 189h48M48 190h48M160 190h48M48 191h48M160 191h48M48 192h48M160 192h48M48 193h48M160 193h48M48 194h48M160 194h48M48 195h48M160 195h48M48 196h48M160 196h48M48 197h39M88 197h8M160 197h48M48 198h17M66 198h30M160 198h48M48 199h48M160 199h48M48 200h48M160 200h48M48 201h28M77 201h19M160 201h19M180 201h28M48 202h12M61 202h35M160 202h48M48 203h48M160 203h48M48 204h48M160 204h48M48 205h48M160 205h48M48 206h48M160 206h48M48 207h48M160 207h48" />
<path stroke="#59c134" d="M165 161h1M58 168h1M191 182h1M65 198h1M179 201h1" />
<path stroke="#59c137" d="M174 161h1M195 175h1" />
<path stroke="#59c335" d="M78 167h1" />
<path stroke="#58c135" d="M162 171h1M59 185h1M93 186h1" />
<path stroke="#5bc135" d="M66 178h1M87 197h1M76 201h1" />
<path stroke="#59c035" d="M191 183h1M60 202h1" />
</svg>